{
  "source": "C:\\Users\\Peter\\Desktop\\stuff\\MIUN\\quantitative_research\\video_compression\\videos\\UVG\\ReadySteadyGo_1920x1080_120fps_420_8bit_YUV.y4m",
  "output": "C:\\Users\\Peter\\Desktop\\stuff\\MIUN\\quantitative_research\\video_compression\\compressed_videos\\UVG\\av1\\12\\ReadySteadyGo_1920x1080_120fps_420_8bit_YUV_av1.mkv",
  "codec": "av1",
  "ok": "[yuv4mpegpipe @ 000001638fbb5c40] Stream #0: not enough frames to estimate rate; consider increasing probesize\nInput #0, yuv4mpegpipe, from 'C:\\Users\\Peter\\Desktop\\stuff\\MIUN\\quantitative_research\\video_compression\\videos\\UVG\\ReadySteadyGo_1920x1080_120fps_420_8bit_YUV.y4m':\n  Duration: 00:00:05.00, start: 0.000000, bitrate: 2985989 kb/s\n  Stream #0:0: Video: rawvideo (I420 / 0x30323449), yuv420p(progressive), 1920x1080, 120 fps, 120 tbr, 120 tbn\n[out#0/matroska @ 000001638fbb9b40] Codec AVOption b:a (set bitrate (in bits/s)) has not been used for any stream. The most likely reason is either wrong type (e.g. a video option with no video streams) or that it is a private option of some decoder which was not actually used for any stream.\nStream mapping:\n  Stream #0:0 -> #0:0 (rawvideo (native) -> av1 (libsvtav1))\nPress [q] to stop, [?] for help\nSvt[info]: -------------------------------------------\nSvt[info]: SVT [version]:\tSVT-AV1 Encoder Lib v3.1.0-19-g6ecfe8ec\nSvt[info]: SVT [build]  :\tGCC 15.2.0\t 64 bit\nSvt[info]: LIB Build date: Aug 17 2025 11:37:13\nSvt[info]: -------------------------------------------\n[libsvtav1 @ 000001638fbbc480] Specified chroma sample location center is unsupported on the AV1 bit stream level. Usage of a container that allows passing this information - such as Matroska - is recommended.\nSvt[info]: Level of Parallelism: 5\nSvt[info]: Number of PPCS 93\nSvt[info]: [asm level on system : up to avx2]\nSvt[info]: [asm level selected : up to avx2]\nSvt[info]: -------------------------------------------\nSvt[info]: SVT [config]: main profile\ttier (auto)\tlevel (auto)\nSvt[info]: SVT [config]: width / height / fps numerator / fps denominator \t\t: 1920 / 1080 / 120 / 1\nSvt[info]: SVT [config]: bit-depth / color format \t\t\t\t\t: 8 / YUV420\nSvt[info]: SVT [config]: preset / tune / pred struct \t\t\t\t\t: 4 / PSNR / random access\nSvt[info]: SVT [config]: gop size / mini-gop size / key-frame type \t\t\t: 641 / 16 / key frame\nSvt[info]: SVT [config]: BRC mode / target bitrate (kbps)\t\t\t\t: VBR / 12000 \nSvt[info]: SVT [config]: AQ mode / Variance Boost \t\t\t\t\t: 2 / 0\nSvt[info]: SVT [config]: sharpness / luminance-based QP bias \t\t\t\t: 0 / 0\nSvt[info]: SVT [config]: QP scale compress strength \t\t\t\t\t: 0\nSvt[info]: -------------------------------------------\nOutput #0, matroska, to 'C:\\Users\\Peter\\Desktop\\stuff\\MIUN\\quantitative_research\\video_compression\\compressed_videos\\UVG\\av1\\12\\ReadySteadyGo_1920x1080_120fps_420_8bit_YUV_av1.mkv':\n  Metadata:\n    encoder         : Lavf62.3.100\n  Stream #0:0: Video: av1 (AV01 / 0x31305641), yuv420p(tv, progressive), 1920x1080, q=2-31, 12000 kb/s, 120 fps, 1k tbn\n    Metadata:\n      encoder         : Lavc62.11.100 libsvtav1\n    Side data:\n      cpb: bitrate max/min/avg: 0/0/12000000 buffer size: 12000000 vbv_delay: N/A\nframe=    0 fps=0.0 q=0.0 size=       0KiB time=N/A bitrate=N/A speed=N/A elapsed=0:00:01.62    \nframe=    0 fps=0.0 q=0.0 size=       0KiB time=N/A bitrate=N/A speed=N/A elapsed=0:00:02.28    \nframe=    0 fps=0.0 q=0.0 size=       0KiB time=N/A bitrate=N/A speed=N/A elapsed=0:00:02.84    \nframe=    0 fps=0.0 q=0.0 size=       0KiB time=N/A bitrate=N/A speed=N/A elapsed=0:00:03.44    \nframe=    0 fps=0.0 q=0.0 size=       0KiB time=N/A bitrate=N/A speed=N/A elapsed=0:00:04.00    \nframe=    0 fps=0.0 q=0.0 size=       0KiB time=N/A bitrate=N/A speed=N/A elapsed=0:00:04.57    \nframe=    0 fps=0.0 q=0.0 size=       0KiB time=N/A bitrate=N/A speed=N/A elapsed=0:00:05.09    \nframe=    0 fps=0.0 q=0.0 size=       0KiB time=N/A bitrate=N/A speed=N/A elapsed=0:00:05.73    \nframe=    0 fps=0.0 q=0.0 size=       0KiB time=N/A bitrate=N/A speed=N/A elapsed=0:00:06.33    \nframe=    0 fps=0.0 q=0.0 size=       0KiB time=N/A bitrate=N/A speed=N/A elapsed=0:00:06.91    \nframe=    0 fps=0.0 q=0.0 size=       0KiB time=N/A bitrate=N/A speed=N/A elapsed=0:00:07.55    \nframe=    0 fps=0.0 q=0.0 size=       0KiB time=N/A bitrate=N/A speed=N/A elapsed=0:00:08.09    \nframe=    1 fps=0.1 q=8.0 size=       1KiB time=00:00:00.00 bitrate=N/A speed=   0x elapsed=0:00:08.69    \nframe=    1 fps=0.1 q=8.0 size=       1KiB time=00:00:00.00 bitrate=N/A speed=   0x elapsed=0:00:09.26    \nframe=    1 fps=0.1 q=8.0 size=       1KiB time=00:00:00.00 bitrate=N/A speed=   0x elapsed=0:00:09.81    \nframe=    1 fps=0.1 q=8.0 size=       1KiB time=00:00:00.00 bitrate=N/A speed=   0x elapsed=0:00:10.45    \nframe=    1 fps=0.1 q=8.0 size=       1KiB time=00:00:00.00 bitrate=N/A speed=   0x elapsed=0:00:11.15    \nframe=    3 fps=0.3 q=32.0 size=       1KiB time=00:00:00.01 bitrate= 268.8kbits/s speed=0.00141x elapsed=0:00:11.85    \nframe=    6 fps=0.5 q=32.0 size=       1KiB time=00:00:00.04 bitrate= 107.5kbits/s speed=0.00335x elapsed=0:00:12.45    \nframe=    8 fps=0.6 q=31.0 size=       1KiB time=00:00:00.05 bitrate=  76.8kbits/s speed=0.00445x elapsed=0:00:13.11    \nframe=   10 fps=0.7 q=29.0 size=       1KiB time=00:00:00.06 bitrate=  67.2kbits/s speed=0.00485x elapsed=0:00:13.73    \nframe=   12 fps=0.8 q=29.0 size=       1KiB time=00:00:00.09 bitrate=  48.9kbits/s speed=0.00635x elapsed=0:00:14.44    \nframe=   16 fps=1.1 q=28.0 size=       1KiB time=00:00:00.10 bitrate=  41.4kbits/s speed=0.0072x elapsed=0:00:15.05    \nframe=   17 fps=1.1 q=16.0 size=       1KiB time=00:00:00.13 bitrate=  33.6kbits/s speed=0.00843x elapsed=0:00:15.81    \nframe=   20 fps=1.2 q=26.0 size=       1KiB time=00:00:00.15 bitrate=  28.3kbits/s speed=0.00968x elapsed=0:00:16.36    \nframe=   21 fps=1.2 q=28.0 size=       1KiB time=00:00:00.16 bitrate=  26.9kbits/s speed=0.00982x elapsed=0:00:16.97    \nframe=   23 fps=1.3 q=27.0 size=       1KiB time=00:00:00.18 bitrate=  24.4kbits/s speed=0.0104x elapsed=0:00:17.56    \nframe=   24 fps=1.3 q=24.0 size=       1KiB time=00:00:00.19 bitrate=  23.4kbits/s speed=0.0105x elapsed=0:00:18.26    \nframe=   25 fps=1.3 q=26.0 size=       1KiB time=00:00:00.20 bitrate=  22.4kbits/s speed=0.0105x elapsed=0:00:19.09    \nframe=   27 fps=1.4 q=29.0 size=       1KiB time=00:00:00.21 bitrate=  20.7kbits/s speed=0.011x elapsed=0:00:19.67    \nframe=   28 fps=1.4 q=25.0 size=       1KiB time=00:00:00.22 bitrate=  19.9kbits/s speed=0.0111x elapsed=0:00:20.31    \nframe=   31 fps=1.5 q=29.0 size=       1KiB time=00:00:00.25 bitrate=  17.9kbits/s speed=0.0119x elapsed=0:00:20.98    \nframe=   34 fps=1.6 q=27.0 size=       1KiB time=00:00:00.27 bitrate=  16.3kbits/s speed=0.0127x elapsed=0:00:21.63    \nframe=   36 fps=1.6 q=26.0 size=       1KiB time=00:00:00.29 bitrate=  15.4kbits/s speed=0.0131x elapsed=0:00:22.19    \nframe=   38 fps=1.7 q=25.0 size=       1KiB time=00:00:00.30 bitrate=  14.5kbits/s speed=0.0135x elapsed=0:00:22.82    \nframe=   39 fps=1.7 q=26.0 size=       1KiB time=00:00:00.31 bitrate=  14.1kbits/s speed=0.0135x elapsed=0:00:23.42    \nframe=   40 fps=1.7 q=25.0 size=       1KiB time=00:00:00.32 bitrate=  13.8kbits/s speed=0.0135x elapsed=0:00:24.08    \nframe=   43 fps=1.7 q=29.0 size=       1KiB time=00:00:00.34 bitrate=  13.1kbits/s speed=0.0139x elapsed=0:00:24.66    \nframe=   44 fps=1.7 q=25.0 size=       1KiB time=00:00:00.35 bitrate=  12.5kbits/s speed=0.0142x elapsed=0:00:25.29    \nframe=   48 fps=1.9 q=25.0 size=       1KiB time=00:00:00.38 bitrate=  11.7kbits/s speed=0.0148x elapsed=0:00:25.90    \nframe=   51 fps=1.9 q=30.0 size=       1KiB time=00:00:00.41 bitrate=  10.8kbits/s speed=0.0158x elapsed=0:00:26.45    \nframe=   53 fps=2.0 q=28.0 size=       1KiB time=00:00:00.42 bitrate=  10.5kbits/s speed=0.0157x elapsed=0:00:26.98    \nframe=   54 fps=2.0 q=25.0 size=       1KiB time=00:00:00.44 bitrate=  10.1kbits/s speed=0.016x elapsed=0:00:27.56    \nframe=   55 fps=2.0 q=28.0 size=       1KiB time=00:00:00.45 bitrate=  10.0kbits/s speed=0.016x elapsed=0:00:28.13    \nframe=   59 fps=2.0 q=30.0 size=       1KiB time=00:00:00.47 bitrate=   9.4kbits/s speed=0.0165x elapsed=0:00:28.80    \nframe=   60 fps=2.0 q=25.0 size=       1KiB time=00:00:00.49 bitrate=   9.1kbits/s speed=0.0167x elapsed=0:00:29.50    \nframe=   65 fps=2.2 q=7.0 size=       1KiB time=00:00:00.53 bitrate=   8.4kbits/s speed=0.0177x elapsed=0:00:30.11    \nframe=   67 fps=2.2 q=30.0 size=       1KiB time=00:00:00.55 bitrate=   8.1kbits/s speed=0.0179x elapsed=0:00:30.66    \nframe=   69 fps=2.2 q=28.0 size=       1KiB time=00:00:00.56 bitrate=   7.9kbits/s speed=0.0182x elapsed=0:00:31.18    \nframe=   71 fps=2.2 q=27.0 size=       1KiB time=00:00:00.58 bitrate=   7.7kbits/s speed=0.0184x elapsed=0:00:31.74    \nframe=   72 fps=2.2 q=26.0 size=       1KiB time=00:00:00.59 bitrate=   7.6kbits/s speed=0.0183x elapsed=0:00:32.27    \nframe=   75 fps=2.3 q=30.0 size=       1KiB time=00:00:00.61 bitrate=   7.3kbits/s speed=0.0188x elapsed=0:00:32.86    \nframe=   77 fps=2.3 q=26.0 size=       1KiB time=00:00:00.63 bitrate=   7.1kbits/s speed=0.0189x elapsed=0:00:33.52    \nframe=   81 fps=2.4 q=8.0 size=       1KiB time=00:00:00.65 bitrate=   6.8kbits/s speed=0.0193x elapsed=0:00:34.10    \nframe=   83 fps=2.4 q=30.0 size=       1KiB time=00:00:00.68 bitrate=   6.6kbits/s speed=0.0197x elapsed=0:00:34.69    \nframe=   86 fps=2.4 q=28.0 size=       1KiB time=00:00:00.70 bitrate=   6.4kbits/s speed=0.0198x elapsed=0:00:35.26    \nframe=   87 fps=2.4 q=28.0 size=       1KiB time=00:00:00.70 bitrate=   6.3kbits/s speed=0.0198x elapsed=0:00:35.82    \nframe=   87 fps=2.4 q=28.0 size=       1KiB time=00:00:00.71 bitrate=   6.3kbits/s speed=0.0197x elapsed=0:00:36.33    \nframe=   91 fps=2.5 q=30.0 size=       1KiB time=00:00:00.75 bitrate=   6.0kbits/s speed=0.0203x elapsed=0:00:36.93    \nframe=   92 fps=2.5 q=26.0 size=       1KiB time=00:00:00.75 bitrate=   5.9kbits/s speed=0.0202x elapsed=0:00:37.52    \nframe=   96 fps=2.5 q=30.0 size=       1KiB time=00:00:00.79 bitrate=   5.7kbits/s speed=0.0208x elapsed=0:00:38.06    \nframe=   99 fps=2.6 q=30.0 size=       1KiB time=00:00:00.81 bitrate=   5.5kbits/s speed=0.0212x elapsed=0:00:38.60    \nframe=  102 fps=2.6 q=31.0 size=       1KiB time=00:00:00.83 bitrate=   5.4kbits/s speed=0.0213x elapsed=0:00:39.18    \nframe=  103 fps=2.6 q=30.0 size=       1KiB time=00:00:00.85 bitrate=   5.3kbits/s speed=0.0214x elapsed=0:00:39.79    \nframe=  106 fps=2.6 q=31.0 size=       1KiB time=00:00:00.87 bitrate=   5.1kbits/s speed=0.0216x elapsed=0:00:40.46    \nframe=  108 fps=2.6 q=28.0 size=       1KiB time=00:00:00.89 bitrate=   5.0kbits/s speed=0.0217x elapsed=0:00:41.06    \nframe=  113 fps=2.7 q=8.0 size=       1KiB time=00:00:00.93 bitrate=   4.8kbits/s speed=0.0224x elapsed=0:00:41.67    \nframe=  115 fps=2.7 q=32.0 size=       1KiB time=00:00:00.95 bitrate=   4.7kbits/s speed=0.0225x elapsed=0:00:42.23    \nframe=  118 fps=2.8 q=32.0 size=       1KiB time=00:00:00.97 bitrate=   4.6kbits/s speed=0.0228x elapsed=0:00:42.81    \nframe=  119 fps=2.7 q=29.0 size=       1KiB time=00:00:00.98 bitrate=   4.6kbits/s speed=0.0226x elapsed=0:00:43.41    \nframe=  122 fps=2.8 q=33.0 size=       1KiB time=00:00:01.00 bitrate=   4.4kbits/s speed=0.0229x elapsed=0:00:43.99    \nframe=  124 fps=2.8 q=30.0 size=       1KiB time=00:00:01.02 bitrate=   4.4kbits/s speed=0.023x elapsed=0:00:44.65    \nframe=  129 fps=2.8 q=11.0 size=       1KiB time=00:00:01.06 bitrate=   4.2kbits/s speed=0.0235x elapsed=0:00:45.30    \nframe=  131 fps=2.9 q=33.0 size=       1KiB time=00:00:01.08 bitrate=   4.1kbits/s speed=0.0236x elapsed=0:00:45.85    \nframe=  133 fps=2.9 q=30.0 size=       1KiB time=00:00:01.10 bitrate=   4.1kbits/s speed=0.0237x elapsed=0:00:46.38    \nframe=  135 fps=2.9 q=29.0 size=       1KiB time=00:00:01.11 bitrate=   4.0kbits/s speed=0.0238x elapsed=0:00:46.95    \nframe=  137 fps=2.9 q=25.0 size=       1KiB time=00:00:01.13 bitrate=   4.0kbits/s speed=0.0238x elapsed=0:00:47.52    \nframe=  140 fps=2.9 q=34.0 size=       1KiB time=00:00:01.15 bitrate=   3.9kbits/s speed=0.0241x elapsed=0:00:48.13    \nframe=  145 fps=3.0 q=14.0 size=       1KiB time=00:00:01.20 bitrate=   3.7kbits/s speed=0.0246x elapsed=0:00:48.73    \nframe=  147 fps=3.0 q=33.0 size=       1KiB time=00:00:01.21 bitrate=   3.7kbits/s speed=0.0247x elapsed=0:00:49.25    \nframe=  150 fps=3.0 q=32.0 size=       1KiB time=00:00:01.23 bitrate=   3.6kbits/s speed=0.0247x elapsed=0:00:49.84    \nframe=  151 fps=3.0 q=29.0 size=       1KiB time=00:00:01.25 bitrate=   3.6kbits/s speed=0.0248x elapsed=0:00:50.42    \nframe=  153 fps=3.0 q=25.0 size=       1KiB time=00:00:01.26 bitrate=   3.5kbits/s speed=0.0248x elapsed=0:00:51.00    \nframe=  155 fps=3.0 q=32.0 size=       1KiB time=00:00:01.28 bitrate=   3.5kbits/s speed=0.0249x elapsed=0:00:51.53    \nframe=  159 fps=3.1 q=31.0 size=       1KiB time=00:00:01.31 bitrate=   3.4kbits/s speed=0.0253x elapsed=0:00:52.11    \nframe=  162 fps=3.1 q=35.0 size=       1KiB time=00:00:01.34 bitrate=   3.3kbits/s speed=0.0255x elapsed=0:00:52.69    \nframe=  165 fps=3.1 q=31.0 size=       1KiB time=00:00:01.36 bitrate=   3.3kbits/s speed=0.0257x elapsed=0:00:53.21    \nframe=  167 fps=3.1 q=34.0 size=       1KiB time=00:00:01.38 bitrate=   3.2kbits/s speed=0.0257x elapsed=0:00:53.83    \nframe=  170 fps=3.1 q=35.0 size=       1KiB time=00:00:01.40 bitrate=   3.2kbits/s speed=0.0257x elapsed=0:00:54.43    \nframe=  172 fps=3.1 q=33.0 size=       1KiB time=00:00:01.42 bitrate=   3.1kbits/s speed=0.0259x elapsed=0:00:55.07    \nframe=  177 fps=3.2 q=17.0 size=       1KiB time=00:00:01.46 bitrate=   3.1kbits/s speed=0.0264x elapsed=0:00:55.65    \nframe=  179 fps=3.2 q=35.0 size=       1KiB time=00:00:01.48 bitrate=   3.0kbits/s speed=0.0264x elapsed=0:00:56.18    \nframe=  181 fps=3.2 q=33.0 size=       1KiB time=00:00:01.50 bitrate=   3.0kbits/s speed=0.0264x elapsed=0:00:56.72    \nframe=  183 fps=3.2 q=31.0 size=       1KiB time=00:00:01.51 bitrate=   3.0kbits/s speed=0.0265x elapsed=0:00:57.24    \nframe=  187 fps=3.2 q=34.0 size=       1KiB time=00:00:01.55 bitrate=   2.9kbits/s speed=0.0268x elapsed=0:00:57.90    \nframe=  188 fps=3.2 q=36.0 size=       1KiB time=00:00:01.55 bitrate=   2.9kbits/s speed=0.0267x elapsed=0:00:58.45    \nframe=  193 fps=3.3 q=19.0 size=       1KiB time=00:00:01.60 bitrate=   2.8kbits/s speed=0.0271x elapsed=0:00:58.99    \nframe=  195 fps=3.3 q=35.0 size=       1KiB time=00:00:01.61 bitrate=   2.8kbits/s speed=0.0271x elapsed=0:00:59.55    \nframe=  198 fps=3.3 q=36.0 size=       1KiB time=00:00:01.64 bitrate=   2.7kbits/s speed=0.0273x elapsed=0:01:00.08    \nframe=  199 fps=3.3 q=35.0 size=       1KiB time=00:00:01.65 bitrate=   2.7kbits/s speed=0.0272x elapsed=0:01:00.60    \nframe=  202 fps=3.3 q=36.0 size=       1KiB time=00:00:01.67 bitrate=   2.7kbits/s speed=0.0274x elapsed=0:01:01.21    \nframe=  205 fps=3.3 q=30.0 size=       1KiB time=00:00:01.69 bitrate=   2.6kbits/s speed=0.0274x elapsed=0:01:01.80    \nframe=  208 fps=3.3 q=36.0 size=       1KiB time=00:00:01.72 bitrate=   2.6kbits/s speed=0.0276x elapsed=0:01:02.40    \nframe=  210 fps=3.3 q=36.0 size=       1KiB time=00:00:01.74 bitrate=   2.6kbits/s speed=0.0277x elapsed=0:01:02.90    \nframe=  213 fps=3.4 q=34.0 size=       1KiB time=00:00:01.76 bitrate=   2.5kbits/s speed=0.0278x elapsed=0:01:03.46    \nframe=  214 fps=3.3 q=37.0 size=       1KiB time=00:00:01.77 bitrate=   2.5kbits/s speed=0.0277x elapsed=0:01:04.05    \nframe=  218 fps=3.4 q=38.0 size=       1KiB time=00:00:01.80 bitrate=   2.5kbits/s speed=0.0279x elapsed=0:01:04.62    \nframe=  221 fps=3.4 q=31.0 size=       1KiB time=00:00:01.83 bitrate=   2.4kbits/s speed=0.0281x elapsed=0:01:05.23    \nframe=  224 fps=3.4 q=36.0 size=       1KiB time=00:00:01.85 bitrate=   2.4kbits/s speed=0.0283x elapsed=0:01:05.76    \nframe=  227 fps=3.4 q=34.0 size=       1KiB time=00:00:01.88 bitrate=   2.4kbits/s speed=0.0284x elapsed=0:01:06.31    \nframe=  229 fps=3.4 q=30.0 size=       1KiB time=00:00:01.90 bitrate=   2.4kbits/s speed=0.0284x elapsed=0:01:06.89    \nframe=  230 fps=3.4 q=37.0 size=       1KiB time=00:00:01.90 bitrate=   2.3kbits/s speed=0.0283x elapsed=0:01:07.45    \nframe=  234 fps=3.4 q=37.0 size=       1KiB time=00:00:01.93 bitrate=   2.3kbits/s speed=0.0284x elapsed=0:01:08.07    \nframe=  235 fps=3.4 q=34.0 size=       1KiB time=00:00:01.95 bitrate=   2.3kbits/s speed=0.0284x elapsed=0:01:08.68    \nframe=  241 fps=3.5 q=21.0 size=       1KiB time=00:00:02.00 bitrate=   2.2kbits/s speed=0.0289x elapsed=0:01:09.30    \nframe=  243 fps=3.5 q=36.0 size=       1KiB time=00:00:02.01 bitrate=   2.2kbits/s speed=0.0288x elapsed=0:01:09.91    \nframe=  245 fps=3.5 q=34.0 size=       1KiB time=00:00:02.03 bitrate=   2.2kbits/s speed=0.0289x elapsed=0:01:10.44    \nframe=  247 fps=3.5 q=32.0 size=       1KiB time=00:00:02.04 bitrate=   2.2kbits/s speed=0.0288x elapsed=0:01:10.95    \nframe=  250 fps=3.5 q=38.0 size=       1KiB time=00:00:02.07 bitrate=   2.2kbits/s speed=0.029x elapsed=0:01:11.65    \nframe=  253 fps=3.5 q=31.0 size=       1KiB time=00:00:02.09 bitrate=   2.1kbits/s speed=0.029x elapsed=0:01:12.19    \nframe=  256 fps=3.5 q=39.0 size=       1KiB time=00:00:02.12 bitrate=   2.1kbits/s speed=0.0292x elapsed=0:01:12.77    \nframe=  259 fps=3.5 q=37.0 size=       1KiB time=00:00:02.15 bitrate=   2.1kbits/s speed=0.0293x elapsed=0:01:13.32    \nframe=  261 fps=3.5 q=35.0 size=       1KiB time=00:00:02.16 bitrate=   2.1kbits/s speed=0.0293x elapsed=0:01:13.86    \nframe=  263 fps=3.5 q=37.0 size=       1KiB time=00:00:02.18 bitrate=   2.1kbits/s speed=0.0293x elapsed=0:01:14.45    \nframe=  267 fps=3.6 q=36.0 size=       1KiB time=00:00:02.20 bitrate=   2.0kbits/s speed=0.0294x elapsed=0:01:15.13    \nframe=  271 fps=3.6 q=35.0 size=       1KiB time=00:00:02.25 bitrate=   2.0kbits/s speed=0.0297x elapsed=0:01:15.75    \nframe=  274 fps=3.6 q=39.0 size=       1KiB time=00:00:02.26 bitrate=   2.0kbits/s speed=0.0297x elapsed=0:01:16.27    \nframe=  276 fps=3.6 q=39.0 size=       1KiB time=00:00:02.29 bitrate=   2.0kbits/s speed=0.0298x elapsed=0:01:16.87    \nframe=  278 fps=3.6 q=39.0 size=       1KiB time=00:00:02.30 bitrate=   1.9kbits/s speed=0.0298x elapsed=0:01:17.48    \nframe=  280 fps=3.6 q=39.0 size=       1KiB time=00:00:02.32 bitrate=   1.9kbits/s speed=0.0297x elapsed=0:01:18.18    \nframe=  282 fps=3.6 q=39.0 size=       1KiB time=00:00:02.34 bitrate=   1.9kbits/s speed=0.0297x elapsed=0:01:18.72    \nframe=  287 fps=3.6 q=36.0 size=       1KiB time=00:00:02.37 bitrate=   1.9kbits/s speed=0.03x elapsed=0:01:19.24    \nframe=  289 fps=3.6 q=22.0 size=       1KiB time=00:00:02.40 bitrate=   1.9kbits/s speed=0.0301x elapsed=0:01:19.83    \nframe=  292 fps=3.6 q=39.0 size=       1KiB time=00:00:02.42 bitrate=   1.8kbits/s speed=0.0302x elapsed=0:01:20.41    \nframe=  294 fps=3.6 q=39.0 size=       1KiB time=00:00:02.44 bitrate=   1.8kbits/s speed=0.0302x elapsed=0:01:20.96    \nframe=  296 fps=3.6 q=39.0 size=       1KiB time=00:00:02.45 bitrate=   1.8kbits/s speed=0.0301x elapsed=0:01:21.58    \nframe=  298 fps=3.6 q=39.0 size=       1KiB time=00:00:02.47 bitrate=   1.8kbits/s speed=0.0301x elapsed=0:01:22.11    \nframe=  303 fps=3.7 q=36.0 size=       1KiB time=00:00:02.51 bitrate=   1.8kbits/s speed=0.0304x elapsed=0:01:22.68    \nframe=  306 fps=3.7 q=40.0 size=       1KiB time=00:00:02.54 bitrate=   1.8kbits/s speed=0.0305x elapsed=0:01:23.23    \nframe=  308 fps=3.7 q=40.0 size=       1KiB time=00:00:02.55 bitrate=   1.8kbits/s speed=0.0305x elapsed=0:01:23.81    \nframe=  310 fps=3.7 q=40.0 size=       1KiB time=00:00:02.57 bitrate=   1.7kbits/s speed=0.0305x elapsed=0:01:24.39    \nframe=  313 fps=3.7 q=31.0 size=       1KiB time=00:00:02.60 bitrate=   1.7kbits/s speed=0.0305x elapsed=0:01:25.13    \nframe=  317 fps=3.7 q=33.0 size=       1KiB time=00:00:02.61 bitrate=   1.7kbits/s speed=0.0305x elapsed=0:01:25.70    \nframe=  320 fps=3.7 q=40.0 size=       1KiB time=00:00:02.65 bitrate=   1.7kbits/s speed=0.0308x elapsed=0:01:26.33    \nframe=  322 fps=3.7 q=40.0 size=       1KiB time=00:00:02.67 bitrate=   1.7kbits/s speed=0.0308x elapsed=0:01:26.88    \nframe=  325 fps=3.7 q=36.0 size=       1KiB time=00:00:02.70 bitrate=   1.7kbits/s speed=0.0309x elapsed=0:01:27.44    \nframe=  326 fps=3.7 q=40.0 size=       1KiB time=00:00:02.70 bitrate=   1.7kbits/s speed=0.0308x elapsed=0:01:28.03    \nframe=  329 fps=3.7 q=32.0 size=       1KiB time=00:00:02.73 bitrate=   1.6kbits/s speed=0.0308x elapsed=0:01:28.66    \nframe=  332 fps=3.7 q=41.0 size=       1KiB time=00:00:02.75 bitrate=   1.6kbits/s speed=0.0309x elapsed=0:01:29.21    \nframe=  336 fps=3.7 q=41.0 size=       1KiB time=00:00:02.79 bitrate=   1.6kbits/s speed=0.0311x elapsed=0:01:29.79    \nframe=  338 fps=3.7 q=41.0 size=       1KiB time=00:00:02.80 bitrate=   1.6kbits/s speed=0.0311x elapsed=0:01:30.31    \nframe=  341 fps=3.8 q=34.0 size=       1KiB time=00:00:02.83 bitrate=   1.6kbits/s speed=0.0312x elapsed=0:01:30.83    \nframe=  343 fps=3.8 q=38.0 size=       1KiB time=00:00:02.84 bitrate=   1.6kbits/s speed=0.0311x elapsed=0:01:31.43    \nframe=  346 fps=3.8 q=41.0 size=       1KiB time=00:00:02.87 bitrate=   1.6kbits/s speed=0.0312x elapsed=0:01:32.05    \nframe=  351 fps=3.8 q=37.0 size=       1KiB time=00:00:02.90 bitrate=   1.5kbits/s speed=0.0313x elapsed=0:01:32.61    \nframe=  354 fps=3.8 q=41.0 size=       1KiB time=00:00:02.94 bitrate=   1.5kbits/s speed=0.0316x elapsed=0:01:33.23    \nframe=  356 fps=3.8 q=41.0 size=       1KiB time=00:00:02.95 bitrate=   1.5kbits/s speed=0.0315x elapsed=0:01:33.77    \nframe=  358 fps=3.8 q=41.0 size=       1KiB time=00:00:02.97 bitrate=   1.5kbits/s speed=0.0315x elapsed=0:01:34.35    \nframe=  361 fps=3.8 q=33.0 size=       1KiB time=00:00:03.00 bitrate=   1.5kbits/s speed=0.0316x elapsed=0:01:35.03    \nframe=  364 fps=3.8 q=41.0 size=       1KiB time=00:00:03.02 bitrate=   1.5kbits/s speed=0.0316x elapsed=0:01:35.61    \nframe=  368 fps=3.8 q=41.0 size=       1KiB time=00:00:03.05 bitrate=   1.5kbits/s speed=0.0318x elapsed=0:01:36.18    \nframe=  370 fps=3.8 q=41.0 size=       1KiB time=00:00:03.07 bitrate=   1.5kbits/s speed=0.0318x elapsed=0:01:36.70    \nframe=  373 fps=3.8 q=37.0 size=    5120KiB time=00:00:03.10 bitrate=13530.0kbits/s speed=0.0319x elapsed=0:01:37.28    \nframe=  376 fps=3.8 q=41.0 size=    5120KiB time=00:00:03.11 bitrate=13457.7kbits/s speed=0.0318x elapsed=0:01:37.90    \nframe=  378 fps=3.8 q=41.0 size=    5120KiB time=00:00:03.14 bitrate=13350.6kbits/s speed=0.0319x elapsed=0:01:38.48    \nframe=  383 fps=3.9 q=37.0 size=    5120KiB time=00:00:03.18 bitrate=13175.8kbits/s speed=0.0321x elapsed=0:01:39.06    \nframe=  385 fps=3.9 q=24.0 size=    5120KiB time=00:00:03.20 bitrate=13107.2kbits/s speed=0.0321x elapsed=0:01:39.65    \nframe=  388 fps=3.9 q=41.0 size=    5120KiB time=00:00:03.22 bitrate=13005.6kbits/s speed=0.0322x elapsed=0:01:40.21    \nframe=  390 fps=3.9 q=41.0 size=    5120KiB time=00:00:03.24 bitrate=12938.7kbits/s speed=0.0322x elapsed=0:01:40.78    \nframe=  393 fps=3.9 q=33.0 size=    5120KiB time=00:00:03.26 bitrate=12839.7kbits/s speed=0.0322x elapsed=0:01:41.42    \nframe=  394 fps=3.9 q=41.0 size=    5120KiB time=00:00:03.27 bitrate=12807.0kbits/s speed=0.0321x elapsed=0:01:41.95    \nframe=  399 fps=3.9 q=38.0 size=    5120KiB time=00:00:03.31 bitrate=12646.1kbits/s speed=0.0324x elapsed=0:01:42.49    \nframe=  402 fps=3.9 q=41.0 size=    5120KiB time=00:00:03.34 bitrate=12551.5kbits/s speed=0.0324x elapsed=0:01:43.06    \nframe=  405 fps=3.9 q=38.0 size=    5120KiB time=00:00:03.35 bitrate=12489.2kbits/s speed=0.0324x elapsed=0:01:43.59    \nframe=  407 fps=3.9 q=40.0 size=    5120KiB time=00:00:03.37 bitrate=12427.6kbits/s speed=0.0324x elapsed=0:01:44.25    \nframe=  409 fps=3.9 q=34.0 size=    5120KiB time=00:00:03.40 bitrate=12336.2kbits/s speed=0.0324x elapsed=0:01:44.91    \nframe=  412 fps=3.9 q=41.0 size=    5120KiB time=00:00:03.42 bitrate=12246.1kbits/s speed=0.0325x elapsed=0:01:45.47    \nframe=  416 fps=3.9 q=41.0 size=    5120KiB time=00:00:03.45 bitrate=12128.1kbits/s speed=0.0326x elapsed=0:01:46.01    \nframe=  418 fps=3.9 q=41.0 size=    5120KiB time=00:00:03.47 bitrate=12069.9kbits/s speed=0.0326x elapsed=0:01:46.53    \nframe=  420 fps=3.9 q=41.0 size=    5120KiB time=00:00:03.49 bitrate=12012.3kbits/s speed=0.0326x elapsed=0:01:47.09    \nframe=  422 fps=3.9 q=41.0 size=    5120KiB time=00:00:03.50 bitrate=11955.3kbits/s speed=0.0326x elapsed=0:01:47.64    \nframe=  425 fps=3.9 q=33.0 size=    5120KiB time=00:00:03.52 bitrate=11898.7kbits/s speed=0.0325x elapsed=0:01:48.31    \nframe=  426 fps=3.9 q=41.0 size=    5120KiB time=00:00:03.54 bitrate=11842.7kbits/s speed=0.0325x elapsed=0:01:48.95    \nframe=  431 fps=3.9 q=37.0 size=    5120KiB time=00:00:03.58 bitrate=11705.0kbits/s speed=0.0327x elapsed=0:01:49.47    \nframe=  434 fps=3.9 q=41.0 size=    5120KiB time=00:00:03.60 bitrate=11623.9kbits/s speed=0.0328x elapsed=0:01:50.03    \nframe=  436 fps=3.9 q=41.0 size=    5120KiB time=00:00:03.62 bitrate=11570.5kbits/s speed=0.0328x elapsed=0:01:50.56    \nframe=  438 fps=3.9 q=41.0 size=    5120KiB time=00:00:03.64 bitrate=11517.5kbits/s speed=0.0328x elapsed=0:01:51.13    \nframe=  439 fps=3.9 q=39.0 size=    5120KiB time=00:00:03.65 bitrate=11491.2kbits/s speed=0.0327x elapsed=0:01:51.64    \nframe=  442 fps=3.9 q=41.0 size=    5120KiB time=00:00:03.67 bitrate=11413.1kbits/s speed=0.0327x elapsed=0:01:52.23    \nframe=  444 fps=3.9 q=41.0 size=    5120KiB time=00:00:03.68 bitrate=11387.3kbits/s speed=0.0326x elapsed=0:01:52.86    \nframe=  448 fps=3.9 q=41.0 size=    5120KiB time=00:00:03.72 bitrate=11259.9kbits/s speed=0.0328x elapsed=0:01:53.47    \nframe=  450 fps=3.9 q=41.0 size=    5120KiB time=00:00:03.74 bitrate=11209.7kbits/s speed=0.0328x elapsed=0:01:54.01    \nframe=  452 fps=3.9 q=41.0 size=    5120KiB time=00:00:03.75 bitrate=11160.0kbits/s speed=0.0328x elapsed=0:01:54.54    \nframe=  454 fps=3.9 q=41.0 size=    5120KiB time=00:00:03.77 bitrate=11110.7kbits/s speed=0.0328x elapsed=0:01:55.11    \nframe=  457 fps=3.9 q=33.0 size=    5120KiB time=00:00:03.80 bitrate=11037.6kbits/s speed=0.0328x elapsed=0:01:55.76    \nframe=  459 fps=3.9 q=38.0 size=    5120KiB time=00:00:03.81 bitrate=10989.4kbits/s speed=0.0328x elapsed=0:01:56.46    \nframe=  464 fps=4.0 q=41.0 size=    5120KiB time=00:00:03.85 bitrate=10870.8kbits/s speed=0.033x elapsed=0:01:57.08    \nframe=  467 fps=4.0 q=39.0 size=    5120KiB time=00:00:03.88 bitrate=10800.8kbits/s speed=0.033x elapsed=0:01:57.70    \nframe=  469 fps=4.0 q=37.0 size=    5120KiB time=00:00:03.90 bitrate=10754.6kbits/s speed=0.033x elapsed=0:01:58.31    \nframe=  472 fps=4.0 q=41.0 size=    5120KiB time=00:00:03.91 bitrate=10708.9kbits/s speed=0.0329x elapsed=0:01:58.87    \nframe=  474 fps=4.0 q=41.0 size=    5120KiB time=00:00:03.94 bitrate=10640.9kbits/s speed=0.033x elapsed=0:01:59.47    \nframe=  479 fps=4.0 q=37.0 size=    5120KiB time=00:00:03.96 bitrate=10573.9kbits/s speed=0.033x elapsed=0:02:00.06    \nframe=  482 fps=4.0 q=41.0 size=    5120KiB time=00:00:04.00 bitrate=10464.0kbits/s speed=0.0332x elapsed=0:02:00.68    \nframe=  484 fps=4.0 q=41.0 size=    5120KiB time=00:00:04.02 bitrate=10420.6kbits/s speed=0.0332x elapsed=0:02:01.28    \nframe=  486 fps=4.0 q=41.0 size=    5120KiB time=00:00:04.04 bitrate=10377.7kbits/s speed=0.0332x elapsed=0:02:01.84    \nframe=  490 fps=4.0 q=41.0 size=    5120KiB time=00:00:04.06 bitrate=10313.9kbits/s speed=0.0332x elapsed=0:02:02.48    \nframe=  492 fps=4.0 q=41.0 size=    5120KiB time=00:00:04.09 bitrate=10250.8kbits/s speed=0.0332x elapsed=0:02:03.16    \nframe=  496 fps=4.0 q=41.0 size=    5120KiB time=00:00:04.12 bitrate=10168.0kbits/s speed=0.0333x elapsed=0:02:03.75    \nframe=  498 fps=4.0 q=41.0 size=    5120KiB time=00:00:04.14 bitrate=10127.1kbits/s speed=0.0333x elapsed=0:02:04.28    \nframe=  501 fps=4.0 q=37.0 size=    5120KiB time=00:00:04.16 bitrate=10066.3kbits/s speed=0.0334x elapsed=0:02:04.83    \nframe=  505 fps=4.0 q=33.0 size=    5120KiB time=00:00:04.20 bitrate=9986.4kbits/s speed=0.0335x elapsed=0:02:05.42    \nframe=  509 fps=4.0 q=35.0 size=    5120KiB time=00:00:04.23 bitrate=9907.8kbits/s speed=0.0336x elapsed=0:02:06.07    \nframe=  513 fps=4.0 q=24.0 size=    5120KiB time=00:00:04.26 bitrate=9830.4kbits/s speed=0.0337x elapsed=0:02:06.68    \nframe=  517 fps=4.1 q=37.0 size=    5120KiB time=00:00:04.30 bitrate=9754.2kbits/s speed=0.0338x elapsed=0:02:07.25    \nframe=  519 fps=4.1 q=36.0 size=    5120KiB time=00:00:04.31 bitrate=9716.5kbits/s speed=0.0338x elapsed=0:02:07.81    \nframe=  521 fps=4.1 q=33.0 size=    5120KiB time=00:00:04.33 bitrate=9679.2kbits/s speed=0.0337x elapsed=0:02:08.43    \nframe=  525 fps=4.1 q=35.0 size=    5120KiB time=00:00:04.35 bitrate=9642.1kbits/s speed=0.0337x elapsed=0:02:09.01    \nframe=  527 fps=4.1 q=38.0 size=    5120KiB time=00:00:04.38 bitrate=9568.8kbits/s speed=0.0338x elapsed=0:02:09.65    \nframe=  531 fps=4.1 q=40.0 size=    5120KiB time=00:00:04.41 bitrate=9496.5kbits/s speed=0.0339x elapsed=0:02:10.19    \nframe=  535 fps=4.1 q=36.0 size=    5120KiB time=00:00:04.43 bitrate=9460.8kbits/s speed=0.0339x elapsed=0:02:10.75    \nframe=  537 fps=4.1 q=34.0 size=    5120KiB time=00:00:04.46 bitrate=9390.2kbits/s speed=0.034x elapsed=0:02:11.35    \nframe=  539 fps=4.1 q=38.0 size=    5120KiB time=00:00:04.48 bitrate=9355.3kbits/s speed=0.034x elapsed=0:02:11.89    \nframe=  543 fps=4.1 q=38.0 size=    5120KiB time=00:00:04.51 bitrate=9286.3kbits/s speed=0.0341x elapsed=0:02:12.43    \nframe=  547 fps=4.1 q=40.0 size=    5120KiB time=00:00:04.55 bitrate=9218.3kbits/s speed=0.0342x elapsed=0:02:12.96    \nframe=  551 fps=4.1 q=40.0 size=    5120KiB time=00:00:04.58 bitrate=9151.2kbits/s speed=0.0343x elapsed=0:02:13.51    \nframe=  553 fps=4.1 q=34.0 size=    5120KiB time=00:00:04.60 bitrate=9118.1kbits/s speed=0.0343x elapsed=0:02:14.06    \nframe=  555 fps=4.1 q=38.0 size=    5120KiB time=00:00:04.61 bitrate=9085.1kbits/s speed=0.0343x elapsed=0:02:14.59    \nframe=  559 fps=4.1 q=37.0 size=    5120KiB time=00:00:04.65 bitrate=9020.0kbits/s speed=0.0344x elapsed=0:02:15.19    \nframe=  561 fps=4.1 q=24.0 size=    5120KiB time=00:00:04.66 bitrate=8987.8kbits/s speed=0.0344x elapsed=0:02:15.80    \nframe=  565 fps=4.1 q=37.0 size=    5120KiB time=00:00:04.70 bitrate=8924.1kbits/s speed=0.0345x elapsed=0:02:16.31    \nframe=  569 fps=4.2 q=34.0 size=    5120KiB time=00:00:04.73 bitrate=8861.2kbits/s speed=0.0346x elapsed=0:02:16.82    \nframe=  569 fps=4.1 q=34.0 size=    5120KiB time=00:00:04.73 bitrate=8861.2kbits/s speed=0.0344x elapsed=0:02:17.41    \nframe=  573 fps=4.2 q=37.0 size=    5120KiB time=00:00:04.76 bitrate=8799.2kbits/s speed=0.0345x elapsed=0:02:18.02    \nframe=  579 fps=4.2 q=40.0 size=    5120KiB time=00:00:04.81 bitrate=8707.9kbits/s speed=0.0347x elapsed=0:02:18.61    \nframe=  585 fps=4.2 q=37.0 size=    5120KiB time=00:00:04.86 bitrate=8618.4kbits/s speed=0.035x elapsed=0:02:19.14    \nframe=  589 fps=4.2 q=40.0 size=    5120KiB time=00:00:04.88 bitrate=8589.0kbits/s speed=0.035x elapsed=0:02:19.70    \n[out#0/matroska @ 000001638fbb9b40] video:7492KiB audio:0KiB subtitle:0KiB other streams:0KiB global headers:0KiB muxing overhead: 0.044866%\nframe=  600 fps=4.3 q=40.0 Lsize=    7495KiB time=00:00:04.99 bitrate=12300.8kbits/s speed=0.0356x elapsed=0:02:20.22    \n",
  "seconds": 141.15148258209229,
  "probe_out": {}
}